<?xml version="1.0" encoding="utf-8"?>
<!-- Generator: Adobe Illustrator 27.8.0, SVG Export Plug-In . SVG Version: 6.00 Build 0)  -->
<svg version="1.1" id="Calque_1" xmlns="http://www.w3.org/2000/svg" xmlns:xlink="http://www.w3.org/1999/xlink" x="0px" y="0px"
	 viewBox="0 0 136 138" style="enable-background:new 0 0 136 138;" xml:space="preserve">
<style type="text/css">
	.st0{fill:#FF000F;}
	.st1{fill:#000091;}
</style>
<path class="st0" d="M68.5,20.7c-26.4,0-47.8,21.8-47.8,48.5s21.5,48.5,47.8,48.5c26.4,0,47.8-21.8,47.8-48.5S94.8,20.7,68.5,20.7z
	 M68.5,137.7C31.2,137.7,1,107,1,69.2C1,31.5,31.2,0.7,68.5,0.7c37.2,0,67.5,30.7,67.5,68.5C136,107,105.7,137.7,68.5,137.7z"/>
<path class="st1" d="M68.5,95.7c-14.6,0-26.5-12.1-26.5-27s11.9-27,26.5-27c14.6,0,26.5,12.1,26.5,27S83.1,95.7,68.5,95.7z"/>
</svg>
