<?xml version="1.0" encoding="utf-8"?>
<!-- Generator: Adobe Illustrator 27.8.0, SVG Export Plug-In . SVG Version: 6.00 Build 0)  -->
<svg version="1.1" id="Calque_1" xmlns="http://www.w3.org/2000/svg" xmlns:xlink="http://www.w3.org/1999/xlink" x="0px" y="0px"
	 viewBox="0 0 142 78" style="enable-background:new 0 0 142 78;" xml:space="preserve">
<style type="text/css">
	.st0{clip-path:url(#SVGID_00000125583719020001165490000009990075153498827950_);}
	.st1{fill:#FFFFFF;}
	.st2{fill:#03020C;}
	.st3{fill:#FF000F;}
	.st4{fill:#000091;}
</style>
<g>
	<defs>
		<rect id="SVGID_1_" x="1.3" y="9.4" width="139.3" height="57.8"/>
	</defs>
	<clipPath id="SVGID_00000126285617118797544060000002210873991292662400_">
		<use xlink:href="#SVGID_1_"  style="overflow:visible;"/>
	</clipPath>
	<g style="clip-path:url(#SVGID_00000126285617118797544060000002210873991292662400_);">
		<path class="st1" d="M59.5,66.1c3.2,0,5.8-2.6,5.8-5.8s-2.6-5.8-5.8-5.8c-3.2,0-5.8,2.6-5.8,5.8S56.3,66.1,59.5,66.1z"/>
		<path class="st2" d="M12.3,33.8v-22c-6,0-10.9,4.9-10.9,11c0,0,0,0,0,0.1H1.3v44.4h10.9L12.3,33.8C12.2,33.8,12.3,33.8,12.3,33.8"
			/>
		<path class="st2" d="M39.1,26c0,3-2.4,5.4-5.4,5.4c-3,0-5.4-2.4-5.4-5.4c0-3,2.4-5.4,5.4-5.4C36.7,20.5,39.1,23,39.1,26z
			 M25.2,49.6c0-4.8,3.9-8.7,8.6-8.7s8.6,3.9,8.6,8.7c0,4.8-3.9,8.7-8.6,8.7S25.2,54.4,25.2,49.6z M44.3,35.4
			c2.2-2.5,3.6-5.8,3.6-9.5c0-7.9-6.3-14.3-14.1-14.3c-7.8,0-14.1,6.4-14.1,14.3c0,3.7,1.4,7,3.6,9.5c-4.2,3.2-6.9,8.3-6.9,14.1
			c0,9.7,7.8,17.7,17.5,17.7c9.6,0,17.5-7.9,17.5-17.7C51.3,43.8,48.5,38.7,44.3,35.4z"/>
		<path class="st2" d="M85.1,40.7c-4.8,0-8.7,3.9-8.7,8.8c0,4.8,3.9,8.8,8.7,8.8c4.8,0,8.7-3.9,8.7-8.8
			C93.8,44.7,89.9,40.7,85.1,40.7z M85.1,67.2c-9.7,0-17.5-8-17.5-17.7c0-9.8,7.9-17.7,17.5-17.7s17.5,8,17.5,17.7
			C102.6,59.3,94.8,67.2,85.1,67.2z"/>
		<path class="st2" d="M114.5,49.5c0-4.8,3.9-8.8,8.7-8.8c4.8,0,8.7,3.9,8.7,8.8c0,4.8-3.9,8.8-8.7,8.8
			C118.4,58.3,114.5,54.3,114.5,49.5z M123.1,31.8c-0.3,0-0.7,0-1,0l8.2-19.5c-5.8-2.4-12,1-14.7,7.6c0,0,0,0,0,0.1l-0.1,0
			l-8.3,22.3c-1,2.2-1.6,4.7-1.6,7.3c0,9.8,7.9,17.7,17.5,17.7s17.5-8,17.5-17.7S132.8,31.8,123.1,31.8z"/>
		<path class="st2" d="M104.1,20.6V19h-2.9v-2.1h2.4v-1.6h-2.4v-2h2.7v-1.6h-4.5v8.9H104.1z M97.8,20.6V19H95v-7.3h-1.8v8.9
			L97.8,20.6L97.8,20.6z M89.6,16.2c0,0.9-0.3,1.6-0.8,2.1c-0.5,0.6-1.2,0.8-1.9,0.8s-1.4-0.3-1.9-0.8c-0.5-0.6-0.8-1.3-0.8-2.1
			c0-0.9,0.3-1.5,0.8-2.1c0.5-0.6,1.2-0.8,1.9-0.8s1.4,0.3,1.9,0.8C89.3,14.6,89.6,15.3,89.6,16.2z M91.4,16.2
			c0-1.3-0.4-2.4-1.3-3.3c-0.9-0.9-1.9-1.3-3.3-1.3c-1.3,0-2.4,0.4-3.3,1.3c-0.9,0.9-1.3,2-1.3,3.3s0.4,2.4,1.3,3.3
			c0.9,0.9,1.9,1.3,3.3,1.3c1.3,0,2.4-0.4,3.3-1.3C91,18.6,91.4,17.5,91.4,16.2 M80.9,19.9l-0.5-1.6c-0.7,0.5-1.4,0.7-2.2,0.7
			s-1.5-0.3-2-0.8c-0.5-0.6-0.8-1.3-0.8-2.1c0-0.9,0.3-1.5,0.8-2.1c0.5-0.6,1.2-0.8,2-0.8c0.7,0,1.4,0.2,2.1,0.7l0.5-1.6
			c-0.7-0.5-1.6-0.8-2.6-0.8c-1.3,0-2.4,0.4-3.3,1.3c-0.9,0.9-1.3,2-1.3,3.3s0.4,2.4,1.3,3.3c0.8,0.9,1.9,1.3,3.3,1.3
			C79.3,20.8,80.2,20.5,80.9,19.9 M70.3,11.2l1.2-1.8h-1.8l-0.8,1.8H70.3z M72.1,20.6V19h-2.9v-2.1h2.4v-1.6h-2.4v-2H72v-1.6h-4.5
			v8.9H72.1z"/>
		<path class="st3" d="M59.5,55.3c-2.7,0-4.9,2.2-4.9,5c0,2.7,2.2,5,4.9,5s4.9-2.2,4.9-5C64.4,57.5,62.2,55.3,59.5,55.3z M59.5,67.2
			c-3.8,0-6.9-3.1-6.9-7c0-3.9,3.1-7,6.9-7c3.8,0,6.9,3.1,6.9,7C66.4,64.1,63.3,67.2,59.5,67.2z"/>
		<path class="st4" d="M59.5,63c-1.5,0-2.7-1.2-2.7-2.8c0-1.5,1.2-2.8,2.7-2.8c1.5,0,2.7,1.2,2.7,2.8C62.2,61.7,61,63,59.5,63z"/>
	</g>
</g>
</svg>
